<svg width="32" height="32" viewBox="0 0 32 32" xmlns="http://www.w3.org/2000/svg">
  <defs>
    <linearGradient id="grad" x1="0%" y1="0%" x2="0%" y2="100%">
      <stop offset="0%" style="stop-color:#4FC3F7;stop-opacity:1" />
      <stop offset="100%" style="stop-color:#1976D2;stop-opacity:1" />
    </linearGradient>
  </defs>
  
  <!-- Shield -->
  <path d="M 16 4 C 12 4 9 5 7 6 L 7 18 C 7 23 11 26 16 29 C 21 26 25 23 25 18 L 25 6 C 23 5 20 4 16 4 Z" 
        fill="url(#grad)"/>
  
  <!-- Arrow up -->
  <path d="M 16 8 L 19 11 L 17 11 L 17 16 L 15 16 L 15 11 L 13 11 Z" 
        fill="white"/>
  
  <!-- Flame -->
  <path d="M 16 16 C 16 16 14 17 14 19 C 14 20 15 21 16 21 C 17 21 18 20 18 19 C 18 17 16 16 16 16 Z" 
        fill="white" opacity="0.8"/>
</svg>
