<svg width="512" height="512" viewBox="0 0 512 512" xmlns="http://www.w3.org/2000/svg">
  <defs>
    <linearGradient id="shieldGradient" x1="0%" y1="0%" x2="0%" y2="100%">
      <stop offset="0%" style="stop-color:#4FC3F7;stop-opacity:1" />
      <stop offset="100%" style="stop-color:#1976D2;stop-opacity:1" />
    </linearGradient>
    <filter id="glow">
      <feGaussianBlur stdDeviation="4" result="coloredBlur"/>
      <feMerge>
        <feMergeNode in="coloredBlur"/>
        <feMergeNode in="SourceGraphic"/>
      </feMerge>
    </filter>
  </defs>
  
  <!-- Orbital rings -->
  <circle cx="256" cy="256" r="220" fill="none" stroke="#4FC3F7" stroke-width="2" opacity="0.3"/>
  
  <!-- Orbital dots -->
  <circle cx="256" cy="36" r="8" fill="white" filter="url(#glow)"/>
  <circle cx="142" cy="92" r="8" fill="white" filter="url(#glow)"/>
  <circle cx="476" cy="256" r="8" fill="white" filter="url(#glow)"/>
  <circle cx="420" cy="420" r="8" fill="white" filter="url(#glow)"/>
  <circle cx="256" cy="476" r="8" fill="white" filter="url(#glow)"/>
  <circle cx="92" cy="420" r="8" fill="white" filter="url(#glow)"/>
  <circle cx="36" cy="256" r="8" fill="white" filter="url(#glow)"/>
  <circle cx="92" cy="92" r="8" fill="white" filter="url(#glow)"/>
  
  <!-- Shield outline -->
  <path d="M 256 80 C 200 80 150 90 120 110 L 120 280 C 120 360 180 420 256 460 C 332 420 392 360 392 280 L 392 110 C 362 90 312 80 256 80 Z" 
        fill="url(#shieldGradient)" opacity="0.9"/>
  
  <!-- Inner shield detail -->
  <path d="M 256 100 C 210 100 170 108 145 125 L 145 280 C 145 350 195 400 256 435 C 317 400 367 350 367 280 L 367 125 C 342 108 302 100 256 100 Z" 
        fill="none" stroke="#0D47A1" stroke-width="3" opacity="0.5"/>
  
  <!-- Flame/arrow design -->
  <path d="M 256 160 L 256 200 C 240 210 230 225 230 245 C 230 270 245 285 256 290 C 267 285 282 270 282 245 C 282 225 272 210 256 200 Z" 
        fill="#4FC3F7"/>
  
  <path d="M 256 290 C 256 290 240 300 240 320 C 240 335 248 345 256 350 C 264 345 272 335 272 320 C 272 300 256 290 256 290 Z" 
        fill="#1976D2"/>
  
  <!-- Upward arrow -->
  <path d="M 256 140 L 280 170 L 268 170 L 268 200 L 244 200 L 244 170 L 232 170 Z" 
        fill="white" opacity="0.9"/>
  
  <!-- Side curves -->
  <path d="M 180 220 Q 200 240 200 270 Q 200 300 180 320" 
        fill="none" stroke="#4FC3F7" stroke-width="6" stroke-linecap="round"/>
  <path d="M 332 220 Q 312 240 312 270 Q 312 300 332 320" 
        fill="none" stroke="#4FC3F7" stroke-width="6" stroke-linecap="round"/>
</svg>
